<svg id="uiIcons" xmlns="http://www.w3.org/2000/svg" version="1.1">

  <symbol id="search-icon" viewBox="0 0 20 20">
    <line fill="none" stroke-miterlimit="10" stroke-linecap="butt" x1="13.9" y1="14" x2="18.6" y2="18.6"/>
    <circle fill="none" stroke-miterlimit="10" cx="9" cy="9" r="7"/>
  </symbol>

  <symbol id="search-icon--small" viewBox="0 0 15 15">
    <line fill="none" stroke-miterlimit="10" stroke-linecap="butt" x1="9.7" y1="9.8" x2="13.6" y2="13.5"/>
    <circle fill="none" stroke-miterlimit="10" cx="6.5" cy="6.5" r="4.5"/>
  </symbol>

  <symbol id="hamburger-icon--even" viewBox="0 0 24 18">
    <line fill="none" stroke-miterlimit="10" x1="0" y1="2" x2="24" y2="2"/>
    <line fill="none" stroke-miterlimit="10" x1="0" y1="9" x2="24" y2="9"/>
    <line fill="none" stroke-miterlimit="10" x1="0" y1="16" x2="24" y2="16"/>
  </symbol>

  <symbol id="hamburger-icon--odd" viewBox="0 0 24 18">
    <line fill="none" stroke-miterlimit="10" x1="0" y1="1.5" x2="24" y2="1.5"/>
    <line fill="none" stroke-miterlimit="10" x1="0" y1="8.5" x2="24" y2="8.5"/>
    <line fill="none" stroke-miterlimit="10" x1="0" y1="15.5" x2="24" y2="15.5"/>
  </symbol>

  <symbol id="hotdog-icon--even" viewBox="0 0 24 14">
    <line fill="none" x1="0" y1="2" x2="24" y2="2"/>
    <line fill="none" x1="0" y1="12" x2="24" y2="12"/>
  </symbol>

  <symbol id="hotdog-icon--odd" viewBox="0 0 24 14">
    <line fill="none" x1="0" y1="2.5" x2="24" y2="2.5"/>
    <line fill="none" x1="0" y1="11.5" x2="24" y2="11.5"/>
  </symbol>

  <symbol id="squares-horizontal-icon--odd" viewBox="0 0 25 7">
    <rect x="2.5" y="1.5" width="3" height="3"/>
    <rect x="18.5" y="1.5" width="3" height="3"/>
    <rect x="10.5" y="1.5" width="3" height="3"/>
  </symbol>

  <symbol id="squares-horizontal-icon--even" viewBox="0 0 25 7">
    <rect x="2" y="2" width="3" height="3"/>
    <rect x="11" y="2" width="3" height="3"/>
    <rect x="20" y="2" width="3" height="3"/>
  </symbol>

  <symbol id="squares-vertical-icon--odd" viewBox="0 0 7 25">
    <rect x="1.5" y="2.5" width="3" height="3"/>
    <rect x="1.5" y="10.5" width="3" height="3"/>
    <rect x="1.5" y="18.5" width="3" height="3"/>
  </symbol>

  <symbol id="squares-vertical-icon--even" viewBox="0 0 7 25">
    <rect x="2" y="2" width="3" height="3"/>
    <rect x="2" y="11" width="3" height="3"/>
    <rect x="2" y="20" width="3" height="3"/>
  </symbol>

  <symbol id="dots-horizontal-icon--odd" viewBox="0 0 25 7">
    <circle cx="20" cy="3" r="1.5"/>
    <circle cx="12" cy="3" r="1.5"/>
    <circle cx="4" cy="3" r="1.5"/>
  </symbol>

  <symbol id="dots-horizontal-icon--even" viewBox="0 0 25 7">
    <circle cx="3.5" cy="3.5" r="1.5"/>
    <circle cx="12.5" cy="3.5" r="1.5"/>
    <circle cx="21.5" cy="3.5" r="1.5"/>
  </symbol>

  <symbol id="dots-vertical-icon--odd" viewBox="0 0 7 25">
    <circle cx="3" cy="4" r="1.5"/>
    <circle cx="3" cy="12" r="1.5"/>
    <circle cx="3" cy="20" r="1.5"/>
  </symbol>

  <symbol id="dots-vertical-icon--even" viewBox="0 0 7 25">
    <circle cx="3.5" cy="3.5" r="1.5"/>
    <circle cx="3.5" cy="12.5" r="1.5"/>
    <circle cx="3.5" cy="21.5" r="1.5"/>
  </symbol>

  <symbol id="close-icon" viewBox="0 0 16 16">
    <line fill="none" stroke-miterlimit="10" x1="1.4" y1="1.4" x2="14.4" y2="14.4"/>
    <line fill="none" stroke-miterlimit="10" x1="1.4" y1="14.4" x2="14.4" y2="1.4"/>
  </symbol>

  <symbol id="checkmark-icon" viewBox="0 0 16 16">
    <path d="M0,8 V8 l4,6 l9,-10 v-3 l-9,10 l-4-6z"/>
  </symbol>

  <symbol id="plus-icon--odd" viewBox="0 0 20 20">
    <line x1="0" y1="9.5" x2="19" y2="9.5"/>
    <line x1="9.5" y1="0" x2="9.5" y2="19"/>
  </symbol>

  <symbol id="plus-icon--even" viewBox="0 0 20 20">
    <line x1="0" y1="10" x2="20" y2="10"/>
    <line x1="10" y1="0" x2="10" y2="20"/>
  </symbol>

  <symbol id="caret-left-icon--small" viewBox="0 0 9 16">
    <polyline fill="none" stroke-miterlimit="10" points="7.3,14.7 2.5,8 7.3,1.2 "/>
  </symbol>

  <symbol id="caret-right-icon--small" viewBox="0 0 9 16">
    <polyline fill="none" stroke-miterlimit="10" points="1.6,1.2 6.5,7.9 1.6,14.7 "/>
  </symbol>

  <symbol id="caret-left-icon--large" viewBox="0 0 23 48">
    <polyline fill="none" stroke-miterlimit="10" points="21.5,1.3 2.6,23.4 21.5,45.7 "/>
  </symbol>

  <symbol id="caret-right-icon--large" viewBox="0 0 23 48">
    <polyline fill="none" stroke-miterlimit="10" points="1.5,45.7 20.4,23.5 1.5,1.3 "/>
  </symbol>

  <symbol id="caret-down-large-icon" viewBox="0 0 48 23">
    <polyline points="1.8,1.6 24,20.4 46.2,1.6 "/>
  </symbol>

  <symbol id="bag-icon--even" viewBox="0 0 34 38">
    <path fill="none" stroke-miterlimit="10" d="M29,36H5c-1.7,0-3-1.6-3-3.5L4,15h26l2,17.5C32,34.4,30.7,36,29,36z"/>
    <path fill="none" stroke-miterlimit="10" d="M11.8,11c0-1.4,0.6-9,5.2-9s5,8.6,5,9"/>
  </symbol>

  <symbol id="bag-icon--odd" viewBox="0 0 34 38">
    <path fill="none" stroke-miterlimit="10" d="M29.4,36.5H4.6c-1.7,0-3.1-1.6-3.1-3.6l2.1-18.4h26.9l2.1,18.4C32.5,34.9,31.1,36.5,29.4,36.5z"/>
    <path fill="none" stroke-miterlimit="10" d="M11.5,11c0-1.4,0.6-9.5,5.6-9.5s5.4,9.1,5.4,9.5"/>
  </symbol>

  <symbol id="bag-icon-alt--even" viewBox="0 0 28 28">
    <path fill="none" d="M7.24,10H20.77a2,2,0,0,1,1.93,1.48l3.23,12h0A2,2,0,0,1,24,26H4a2,2,0,0,1-1.93-2.52l3.24-12h0A2,2,0,0,1,7.24,10Z"/>
    <path fill="none" d="M12.34,3.5H15.7A2,2,0,0,1,17.63,5L19,10H9l1.42-5h0A2,2,0,0,1,12.34,3.5Z"/>
  </symbol>

  <symbol id="bag-icon-alt--odd" viewBox="0 0 28 28">
    <path fill="none" d="M7.24,9.5H20.77A2,2,0,0,1,22.7,11l3.23,12h0A2,2,0,0,1,24,25.5H4A2,2,0,0,1,2.07,23L5.31,11h0A2,2,0,0,1,7.24,9.5Z"/>
    <path fill="none" d="M12.31,3.5h3.42a2,2,0,0,1,1.92,1.43L19,9.5H9l1.39-4.58h0A2,2,0,0,1,12.31,3.5Z"/>
  </symbol>

  <symbol id="cart-icon--even" viewBox="0 0 31 26">
    <circle stroke-miterlimit="10" cx="23" cy="23" r="1"/>
    <circle stroke-miterlimit="10" cx="9" cy="23" r="1"/>
    <path fill="none" stroke-miterlimit="10" d="M0,2h5c0.6,0,1.1,0.4,1.1,1l1.7,13c0.1,0.5,0.6,1,1.1,1h15c0.5,0,1.2-0.4,1.4-0.9l3.3-8.1C28.8,7.4,28.5,7,28,7H12"/>
  </symbol>

  <symbol id="cart-icon--odd" viewBox="0 0 31 26">
    <circle stroke-miterlimit="10" cx="22.5" cy="21.5" r="1"/>
    <circle stroke-miterlimit="10" cx="9.5" cy="21.5" r="1"/>
    <path fill="none" stroke-miterlimit="10" d="M0,1.5h5c0.6,0,1.1,0.4,1.1,1l1.7,13c0.1,0.5,0.6,1,1.1,1h15c0.5,0,1.2-0.4,1.4-0.9l3.3-8.1c0.2-0.5-0.1-0.9-0.6-0.9H12"/>
  </symbol>

  <symbol id="cart-icon-alt--even" viewBox="0 0 28 28">
    <polyline fill="none" points="-0.03 2 5.58 2 11.12 18 27.03 18"/>
    <circle cx="12.5" cy="23" r="1"/>
    <circle cx="24.5" cy="23" r="1"/>
    <path fill="none" d="M6.29,4,23.51,5.16h0a1,1,0,0,1,.87,1.34L22,13H9.34Z"/>
  </symbol>

  <symbol id="cart-icon-alt--odd" viewBox="0 0 28 28">
    <polyline fill="none" points="-0.03 1.5 5.58 1.5 11.12 17.49 27.03 17.49"/>
    <circle cx="12.5" cy="23" r="1.5"/>
    <circle cx="24.5" cy="23" r="1.5"/>
    <path fill="none" d="M6.29,3.51,23.5,4.64h0A1,1,0,0,1,24.37,6L22,12.27H9.34Z"/>
  </symbol>

  <symbol id="accounts-icon--even" viewBox="0 0 28 28">
    <path d="M17.2489522,16.9411382 L17.2489522,15.7280121 C19.5338094,14.7358692 20.4711429,12.5642857 20.4711429,9.92857143 C20.4711429,6.37785714 17.5734286,3.5 14,3.5 C10.4265714,3.5 7.52990476,6.37785714 7.52990476,9.92857143 C7.52990476,12.5642857 8.49701847,14.8223866 10.7818756,15.8145294 L10.7818756,16.9400774 L10.7818756,16.9400774 C10.7818756,17.3617396 10.5173816,17.7380936 10.1206539,17.8809436 L4.07485714,20.0578571 C3.43266667,20.2689286 3,20.8625 3,21.53 L3,26 L25,26 L25,21.53 C25,20.8625 24.5673333,20.2689286 23.9261905,20.0578571 L17.9088375,17.8815221 L17.9088375,17.8815221 C17.5128029,17.7382857 17.2489522,17.3622795 17.2489522,16.9411382 Z" />
  </symbol>

  <symbol id="accounts-icon--odd" viewBox="0 0 28 28">
    <path d="M17.2489522,16.6215219 L17.2489522,15.4562785 C19.5338094,14.4861832 20.4711429,12.3628571 20.4711429,9.78571429 C20.4711429,6.31390476 17.5734286,3.5 14,3.5 C10.4265714,3.5 7.52990476,6.31390476 7.52990476,9.78571429 C7.52990476,12.3628571 8.49701847,14.570778 10.7818756,15.5408732 L10.7818756,16.6204741 L10.7818756,16.6204741 C10.7818756,17.0447417 10.5141537,17.422828 10.1139641,17.5637224 L4.07485714,19.6899048 C3.43266667,19.8962857 3,20.4766667 3,21.1293333 L3,25.5 L25,25.5 L25,21.1293333 C25,20.4766667 24.5673333,19.8962857 23.9261905,19.6899048 L17.915547,17.5643055 L17.915547,17.5643055 C17.5160377,17.4230233 17.2489522,17.0452769 17.2489522,16.6215219 Z" />
  </symbol>

  <symbol id="no-image-icon" viewBox="0 0 22 22">
    <path d="M15 11a2 2 0 100-4 2 2 0 000 4z"></path>
    <path clip-rule="evenodd" d="M2 4h18v14H2V4zm2 2v8.586L8.586 10h1.828l6 6H18V6H4zm9.586 10H5.414l4-4h.172l4 4z" fill-rule="evenodd"></path>
  </symbol>

  <symbol id="video-player-icon" viewBox="0 0 24 24">
    <path d="M8.01562 5.01562L18.9844 12L8.01562 18.9844V5.01562Z"/>
  </symbol>

  <symbol id="icon-nav-hamburger" viewBox="0 0 18 16">
    <path fill-rule="evenodd" clip-rule="evenodd" d="M2.00312 3.8002C2.99724 3.8002 3.80312 2.99431 3.80312 2.0002C3.80312 1.00608 2.99724 0.200195 2.00312 0.200195C1.00901 0.200195 0.203125 1.00608 0.203125 2.0002C0.203125 2.99431 1.00901 3.8002 2.00312 3.8002Z"/>
    <path fill-rule="evenodd" clip-rule="evenodd" d="M2.00312 9.80024C2.99724 9.80024 3.80312 8.99436 3.80312 8.00024C3.80312 7.00613 2.99724 6.20024 2.00312 6.20024C1.00901 6.20024 0.203125 7.00613 0.203125 8.00024C0.203125 8.99436 1.00901 9.80024 2.00312 9.80024Z"/>
    <path fill-rule="evenodd" clip-rule="evenodd" d="M2.00312 15.8002C2.99724 15.8002 3.80312 14.9944 3.80312 14.0002C3.80312 13.0061 2.99724 12.2002 2.00312 12.2002C1.00901 12.2002 0.203125 13.0061 0.203125 14.0002C0.203125 14.9944 1.00901 15.8002 2.00312 15.8002Z"/>
    <path d="M6.00391 2.00024C6.00391 1.44796 6.45162 1.00024 7.00391 1.00024L17.0039 1.00024C17.5562 1.00024 18.0039 1.44796 18.0039 2.00024C18.0039 2.55253 17.5562 3.00024 17.0039 3.00024L7.00391 3.00024C6.45162 3.00024 6.00391 2.55253 6.00391 2.00024Z"/>
    <path d="M6.00391 8.00024C6.00391 7.44796 6.45162 7.00024 7.00391 7.00024L17.0039 7.00024C17.5562 7.00024 18.0039 7.44796 18.0039 8.00024C18.0039 8.55253 17.5562 9.00024 17.0039 9.00024L7.00391 9.00024C6.45162 9.00024 6.00391 8.55253 6.00391 8.00024Z"/>
    <path d="M6.00391 14.0002C6.00391 13.448 6.45162 13.0002 7.00391 13.0002L17.0039 13.0002C17.5562 13.0002 18.0039 13.448 18.0039 14.0002C18.0039 14.5525 17.5562 15.0002 17.0039 15.0002L7.00391 15.0002C6.45162 15.0002 6.00391 14.5525 6.00391 14.0002Z"/>
  </symbol>

  <symbol id="lock-icon" viewBox="0 0 22 22" fill="none">
    <path fill-rule="evenodd" clip-rule="evenodd" d="M7 10V7.7C7 5.56005 8.89257 4 11 4C13.1074 4 15 5.56005 15 7.7V10C16.1046 10 17 10.8954 17 12V16C17 17.1046 16.1046 18 15 18H7C5.89543 18 5 17.1046 5 16V12C5 10.8954 5.89543 10 7 10ZM9 7.7C9 6.85762 9.79372 6 11 6C12.2063 6 13 6.85762 13 7.7V10H9V7.7ZM10 12V16H12V12H10Z" fill="currentColor"/>
  </symbol>
  <symbol id="lock-outline-icon" viewBox="0 0 21 26" fill="currentColor">
    <path d="M9.1875 15.6V20.8H11.8125V15.6H9.1875Z" />
    <path fill-rule="evenodd" clip-rule="evenodd" d="M3.9375 6.5V10.4H0V26H21V10.4H17.0625V6.5C17.0625 2.91015 14.1244 0 10.5 0C6.87563 0 3.9375 2.91015 3.9375 6.5ZM10.5 2.6C8.32538 2.6 6.5625 4.34609 6.5625 6.5V10.4H14.4375V6.5C14.4375 4.34609 12.6746 2.6 10.5 2.6ZM2.625 13V23.4H18.375V13H2.625Z" />
  </symbol>
  <symbol id="chevron-down-large-icon" viewBox="0 0 22 22" fill="none">
    <path d="M4.31394 9.03957C4.55012 8.85527 4.81355 8.75893 5.10423 8.75055C5.39491 8.74217 5.64926 8.83851 5.86727 9.03957L10.4728 13.287L15.1055 9.01444C15.3054 8.83013 15.5643 8.74217 15.8822 8.75055C16.2001 8.75892 16.459 8.85527 16.6589 9.03957C16.895 9.25739 17.0086 9.49615 16.9995 9.75585C16.9904 10.0156 16.8769 10.2459 16.6589 10.447L11.2358 15.4484C11.1268 15.5489 11.0087 15.6243 10.8815 15.6746C10.7544 15.7249 10.6181 15.75 10.4728 15.75C10.3274 15.75 10.1912 15.7249 10.064 15.6746C9.93682 15.6243 9.81873 15.5489 9.70973 15.4484L4.31394 10.4721C4.09593 10.2711 3.99146 10.0365 4.00055 9.76842C4.00963 9.50034 4.11409 9.25739 4.31394 9.03957Z" fill="currentColor"/>
  </symbol>
</svg>
